HIERARCHY
ROOT hip
{
  OFFSET -174.847 83.8507 4.35967
  CHANNELS 6 Xposition Yposition Zposition Zrotation Xrotation Yrotation
  JOINT abdomen
  {
    OFFSET 0 20.6881 -0.73152
    CHANNELS 3 Zrotation Xrotation Yrotation
    JOINT chest
    {
      OFFSET 0 11.7043 -0.48768
      CHANNELS 3 Zrotation Xrotation Yrotation
      JOINT neck
      {
        OFFSET 0 22.1894 -2.19456
        CHANNELS 3 Zrotation Xrotation Yrotation
        JOINT head
        {
          OFFSET -0.24384 7.07133 1.2192
          CHANNELS 3 Zrotation Xrotation Yrotation
          JOINT leftEye
          {
            OFFSET 4.14528 8.04674 8.04672
            CHANNELS 3 Zrotation Xrotation Yrotation
            End Site
            {
              OFFSET 1 0 0
            }
          }
          JOINT rightEye
          {
            OFFSET -3.6576 8.04674 8.04672
            CHANNELS 3 Zrotation Xrotation Yrotation
            End Site
            {
              OFFSET 1 0 0
            }
          }
        }
      }
      JOINT rCollar
      {
        OFFSET -2.68224 19.2634 -4.8768
        CHANNELS 3 Zrotation Xrotation Yrotation
        JOINT rShldr
        {
          OFFSET -8.77824 -1.95073 1.46304
          CHANNELS 3 Zrotation Xrotation Yrotation
          JOINT rForeArm
          {
            OFFSET -28.1742 -1.7115 0.48768
            CHANNELS 3 Zrotation Xrotation Yrotation
            JOINT rHand
            {
              OFFSET -22.5879 0.773209 7.07136
              CHANNELS 3 Zrotation Xrotation Yrotation
              JOINT rThumb1
              {
                OFFSET -1.2192 -0.487915 3.41376
                CHANNELS 3 Zrotation Xrotation Yrotation
                JOINT rThumb2
                {
                  OFFSET -3.37035 -0.52449 3.41376
                  CHANNELS 3 Zrotation Xrotation Yrotation
                  End Site
                  {
                    OFFSET -1.78271 -1.18214 1.43049
                  }
                }
              }
              JOINT rIndex1
              {
                OFFSET -7.75947 0.938293 5.60832
                CHANNELS 3 Zrotation Xrotation Yrotation
                JOINT rIndex2
                {
                  OFFSET -2.54057 -0.884171 1.56538
                  CHANNELS 3 Zrotation Xrotation Yrotation
                  End Site
                  {
                    OFFSET -1.62519 -0.234802 1.16502
                  }
                }
              }
              JOINT rMid1
              {
                OFFSET -8.24714 1.18213 3.41376
                CHANNELS 3 Zrotation Xrotation Yrotation
                JOINT rMid2
                {
                  OFFSET -3.10165 -0.590103 1.0647
                  CHANNELS 3 Zrotation Xrotation Yrotation
                  End Site
                  {
                    OFFSET -2.48547 -0.328903 0.83742
                  }
                }
              }
              JOINT rRing1
              {
                OFFSET -8.82822 0.546677 1.51678
                CHANNELS 3 Zrotation Xrotation Yrotation
                JOINT rRing2
                {
                  OFFSET -2.60934 -0.819778 -0.0198488
                  CHANNELS 3 Zrotation Xrotation Yrotation
                  End Site
                  {
                    OFFSET -2.33842 -0.294052 0.168128
                  }
                }
              }
              JOINT rPinky1
              {
                OFFSET -8.27202 -0.0477905 -0.4584
                CHANNELS 3 Zrotation Xrotation Yrotation
                JOINT rPinky2
                {
                  OFFSET -1.82734 -0.647385 -0.700984
                  CHANNELS 3 Zrotation Xrotation Yrotation
                  End Site
                  {
                    OFFSET -1.69225 -0.51767 -0.607171
                  }
                }
              }
            }
          }
        }
      }
      JOINT lCollar
      {
        OFFSET 2.68224 19.2634 -4.8768
        CHANNELS 3 Zrotation Xrotation Yrotation
        JOINT lShldr
        {
          OFFSET 8.77824 -1.95073 1.46304
          CHANNELS 3 Zrotation Xrotation Yrotation
          JOINT lForeArm
          {
            OFFSET 28.1742 -1.7115 0.48768
            CHANNELS 3 Zrotation Xrotation Yrotation
            JOINT lHand
            {
              OFFSET 22.5879 0.773209 7.07136
              CHANNELS 3 Zrotation Xrotation Yrotation
              JOINT lThumb1
              {
                OFFSET 1.2192 -0.487915 3.41376
                CHANNELS 3 Zrotation Xrotation Yrotation
                JOINT lThumb2
                {
                  OFFSET 3.37035 -0.52449 3.41376
                  CHANNELS 3 Zrotation Xrotation Yrotation
                  End Site
                  {
                    OFFSET 1.78271 -1.18214 1.43049
                  }
                }
              }
              JOINT lIndex1
              {
                OFFSET 7.75947 0.938293 5.60832
                CHANNELS 3 Zrotation Xrotation Yrotation
                JOINT lIndex2
                {
                  OFFSET 2.54057 -0.884171 1.56538
                  CHANNELS 3 Zrotation Xrotation Yrotation
                  End Site
                  {
                    OFFSET 1.62519 -0.234802 1.16502
                  }
                }
              }
              JOINT lMid1
              {
                OFFSET 8.24714 1.18213 3.41376
                CHANNELS 3 Zrotation Xrotation Yrotation
                JOINT lMid2
                {
                  OFFSET 3.10165 -0.590103 1.0647
                  CHANNELS 3 Zrotation Xrotation Yrotation
                  End Site
                  {
                    OFFSET 2.48547 -0.328903 0.83742
                  }
                }
              }
              JOINT lRing1
              {
                OFFSET 8.82822 0.546677 1.51678
                CHANNELS 3 Zrotation Xrotation Yrotation
                JOINT lRing2
                {
                  OFFSET 2.60934 -0.819778 -0.0198488
                  CHANNELS 3 Zrotation Xrotation Yrotation
                  End Site
                  {
                    OFFSET 2.33842 -0.294052 0.168128
                  }
                }
              }
              JOINT lPinky1
              {
                OFFSET 8.27202 -0.0477905 -0.4584
                CHANNELS 3 Zrotation Xrotation Yrotation
                JOINT lPinky2
                {
                  OFFSET 1.82734 -0.647385 -0.700984
                  CHANNELS 3 Zrotation Xrotation Yrotation
                  End Site
                  {
                    OFFSET 1.69225 -0.51767 -0.607171
                  }
                }
              }
            }
          }
        }
      }
    }
  }
  JOINT rButtock
  {
    OFFSET -8.77824 4.35084 1.2192
    CHANNELS 3 Zrotation Xrotation Yrotation
    JOINT rThigh
    {
      OFFSET 0 -1.70687 -2.19456
      CHANNELS 3 Zrotation Xrotation Yrotation
      JOINT rShin
      {
        OFFSET 0 -36.8199 0.73152
        CHANNELS 3 Zrotation Xrotation Yrotation
        JOINT rFoot
        {
          OFFSET 0.73152 -45.1104 -5.12064
          CHANNELS 3 Zrotation Xrotation Yrotation
          End Site
          {
            OFFSET -1.1221 -3.69964 12.103
          }
        }
      }
    }
  }
  JOINT lButtock
  {
    OFFSET 8.77824 4.35084 1.2192
    CHANNELS 3 Zrotation Xrotation Yrotation
    JOINT lThigh
    {
      OFFSET 0 -1.70687 -2.19456
      CHANNELS 3 Zrotation Xrotation Yrotation
      JOINT lShin
      {
        OFFSET 0 -36.8199 0.73152
        CHANNELS 3 Zrotation Xrotation Yrotation
        JOINT lFoot
        {
          OFFSET -0.73152 -45.1104 -5.12064
          CHANNELS 3 Zrotation Xrotation Yrotation
          End Site
          {
            OFFSET 1.1221 -3.69964 12.103
          }
        }
      }
    }
  }
}
MOTION
Frames:	4
Frame Time:	0.00833333
237.887 81.929 -14.1126 4.80052 -1.98656 -117.502 -8.30273 19.3416 7.08022 1.56493 1.02888 1.95239 11.5826 2.96509 16.0977 -31.8049 1.67546 32.5645 -0 0 0 -0 0 0 -2.86636e-013 5.22198e-014 4.37688e-013 72.6246 31.194 8.56016 -18.4968 -11.2316 35.1425 -0.517191 -19.9986 -2.93195 1.99902e-009 4.63199e-010 1.20292e-009 3.42772e-009 8.10924e-010 2.11607e-009 1.99902e-009 4.63199e-010 1.20292e-009 7.73091 5.47488 0.417314 1.99902e-009 4.63198e-010 1.20293e-009 2.90554 0.965183 0.102902 1.99903e-009 4.63197e-010 1.20293e-009 10.2786 0.731801 0.0259123 1.99902e-009 4.63196e-010 1.20294e-009 2.22167 -0.733487 -0.20892 -2.86673e-013 5.22041e-014 4.37482e-013 -64.6179 37.4774 -17.7881 19.9629 -12.9654 -38.589 0.854908 -25.2933 3.80807 7.69183e-010 -2.66416e-010 -5.63494e-010 1.34038e-009 -4.38278e-010 -9.59005e-010 7.69172e-010 -2.66416e-010 -5.63486e-010 -7.73091 5.47488 -0.417314 7.69183e-010 -2.66418e-010 -5.63485e-010 -2.90554 0.965183 -0.102902 7.69178e-010 -2.66417e-010 -5.63487e-010 -10.2786 0.731801 -0.0259123 7.6919e-010 -2.66413e-010 -5.63488e-010 -2.22167 -0.733487 0.20892 -2.03217e-016 0 -3.88251e-019 -13.9046 -25.5719 -15.6135 -0.479755 47.9781 1.14379 -5.57817 -13.3956 -16.2835 2.03217e-016 0 3.88251e-019 -3.82136 -26.2267 2.69347 0.368447 41.475 -0.752755 1.38177 -14.4837 2.82915 
238.491 81.9109 -14.4424 4.92178 -1.90903 -119.499 -8.31962 19.6029 7.06911 1.49013 0.875646 1.96031 11.7405 3.1771 16.3321 -31.9456 1.14759 32.9138 -0 0 0 -0 0 0 -3.03744e-013 1.14509e-013 4.74002e-013 72.4602 31.3937 8.62244 -18.6787 -11.4354 35.5611 -0.538601 -20.3895 -2.99434 2.03309e-009 5.91691e-010 1.72494e-009 3.47523e-009 1.03441e-009 3.02168e-009 2.03309e-009 5.91691e-010 1.72494e-009 7.73091 5.47488 0.417314 2.03309e-009 5.9169e-010 1.72494e-009 2.90554 0.965183 0.102902 2.0331e-009 5.91688e-010 1.72494e-009 10.2786 0.731801 0.0259123 2.03309e-009 5.91687e-010 1.72495e-009 2.22167 -0.733487 -0.20892 -3.03762e-013 1.14491e-013 4.73803e-013 -64.2909 37.6977 -18.0444 20.0447 -13.0681 -38.7886 0.856019 -25.3106 3.81098 7.26989e-010 -5.96298e-010 -7.38115e-010 1.27294e-009 -1.00671e-009 -1.26236e-009 7.26978e-010 -5.96298e-010 -7.38105e-010 -7.73091 5.47488 -0.417314 7.26989e-010 -5.963e-010 -7.38105e-010 -2.90554 0.965183 -0.102902 7.26983e-010 -5.96299e-010 -7.38107e-010 -10.2786 0.731801 -0.0259123 7.26997e-010 -5.96294e-010 -7.38108e-010 -2.22167 -0.733487 0.20892 -2.03217e-016 0 -3.88251e-019 -13.8314 -27.1541 -14.5878 -0.443713 46.7035 1.08595 -5.67176 -13.7959 -16.267 2.03217e-016 0 3.88251e-019 -4.42002 -25.8531 1.62265 0.370831 41.461 -0.739563 1.04772 -14.2821 1.91734 
239.125 81.891 -14.806 5.0663 -1.73879 -121.627 -8.3905 19.8523 7.01858 1.40305 0.822232 1.95748 11.8502 3.4369 16.5705 -32.0876 0.560996 33.2806 -0 0 0 -0 0 0 -1.78668e-013 1.36131e-013 2.42203e-013 72.2392 31.5389 8.67245 -18.8576 -11.6397 35.9727 -0.565506 -20.873 -3.07185 1.40233e-009 6.61014e-010 1.66445e-009 2.38558e-009 1.15187e-009 2.9069e-009 1.40233e-009 6.61015e-010 1.66444e-009 7.73091 5.47488 0.417314 1.40233e-009 6.61014e-010 1.66445e-009 2.90554 0.965183 0.102902 1.40234e-009 6.61012e-010 1.66445e-009 10.2786 0.731801 0.0259123 1.40233e-009 6.6101e-010 1.66446e-009 2.22167 -0.733487 -0.20892 -1.78674e-013 1.36117e-013 2.41998e-013 -64.1899 37.6865 -18.248 20.0904 -13.1252 -38.9024 0.847962 -25.2023 3.79229 5.31427e-010 -1.05049e-009 -9.24551e-010 9.41494e-010 -1.79539e-009 -1.58963e-009 5.31417e-010 -1.05049e-009 -9.24541e-010 -7.73091 5.47488 -0.417314 5.31428e-010 -1.05049e-009 -9.24543e-010 -2.90554 0.965183 -0.102902 5.31421e-010 -1.05049e-009 -9.24547e-010 -10.2786 0.731801 -0.0259123 5.31435e-010 -1.05049e-009 -9.24549e-010 -2.22167 -0.733487 0.20892 -2.03217e-016 0 -3.88251e-019 -14.099 -28.5594 -13.6662 -0.415737 45.5939 1.02523 -5.43581 -13.9491 -15.4963 2.03217e-016 0 3.88251e-019 -5.14537 -25.2899 0.495194 0.36874 41.2349 -0.718911 0.714473 -14.0708 0.989131 
239.732 81.9099 -15.3554 5.24505 -1.48953 -123.871 -8.49785 20.1008 6.94495 1.30118 0.82619 1.94849 11.93 3.73688 16.8211 -32.231 -0.0728545 33.6778 -0 0 0 -0 0 0 4.1526e-014 1.2648e-013 -1.72082e-013 71.9796 31.6588 8.69855 -19.0358 -11.8463 36.3842 -0.597379 -21.4245 -3.16097 3.26054e-010 7.03886e-010 1.23801e-009 5.33276e-010 1.22119e-009 2.15067e-009 3.2606e-010 7.03888e-010 1.238e-009 7.73091 5.47488 0.417314 3.26057e-010 7.03886e-010 1.23801e-009 2.90554 0.965183 0.102902 3.26063e-010 7.03885e-010 1.23801e-009 10.2786 0.731801 0.0259123 3.26052e-010 7.03882e-010 1.23802e-009 2.22167 -0.733487 -0.20892 4.15315e-014 1.26474e-013 -1.72303e-013 -64.2449 37.5309 -18.4074 20.1053 -13.144 -38.939 0.831799 -24.9814 3.75432 2.35104e-010 -1.61597e-009 -1.13351e-009 4.37048e-010 -2.77992e-009 -1.9582e-009 2.35096e-010 -1.61597e-009 -1.1335e-009 -7.73091 5.47488 -0.417314 2.35106e-010 -1.61597e-009 -1.13351e-009 -2.90554 0.965183 -0.102902 2.35097e-010 -1.61597e-009 -1.13351e-009 -10.2786 0.731801 -0.0259123 2.35109e-010 -1.61597e-009 -1.13352e-009 -2.22167 -0.733487 0.20892 -2.03217e-016 0 -3.88251e-019 -14.6055 -29.8317 -12.7629 -0.39327 44.5648 0.961332 -4.9381 -13.866 -14.1425 2.03217e-016 0 3.88251e-019 -5.94318 -24.6047 -0.669547 0.364104 40.8624 -0.69241 0.380006 -13.8285 0.0364775 
